<svg xmlns="http://www.w3.org/2000/svg" xmlns:xlink="http://www.w3.org/1999/xlink" width="349" height="632" viewBox="0 0 349 632">
  <defs>
    <style>
      .cls-1 {
        fill: #a8ca3f;
        filter: url(#filter);
      }

      .cls-1, .cls-2, .cls-4, .cls-5, .cls-6 {
        fill-rule: evenodd;
      }

      .cls-2 {
        fill: #fff;
      }

      .cls-3 {
        fill: #eef2f7;
      }

      .cls-4 {
        stroke: #000;
        stroke-linejoin: round;
        stroke-width: 1px;
      }

      .cls-5 {
        fill: #ff6b00;
      }

      .cls-6 {
        fill: #fd7532;
      }
    </style>
    <filter id="filter" x="1556" y="82" width="349" height="632" filterUnits="userSpaceOnUse">
      <feOffset result="offset" in="SourceAlpha"/>
      <feGaussianBlur result="blur" stdDeviation="6.325"/>
      <feFlood result="flood" flood-color="#1d5b98" flood-opacity="0.1"/>
      <feComposite result="composite" operator="in" in2="blur"/>
      <feBlend result="blend" in="SourceGraphic"/>
    </filter>
  </defs>
  <path id="Rounded_Rectangle_1_copy" data-name="Rounded Rectangle 1 copy" class="cls-1" d="M1610,121h240a15,15,0,0,1,15,15V659a15,15,0,0,1-15,15H1610a15,15,0,0,1-15-15V136A15,15,0,0,1,1610,121Zm59-19h122a8,8,0,0,1,8,8v32a8,8,0,0,1-8,8H1669a8,8,0,0,1-8-8V110A8,8,0,0,1,1669,102Z" transform="translate(-1556 -82)"/>
  <path id="Rounded_Rectangle_1_copy_2" data-name="Rounded Rectangle 1 copy 2" class="cls-2" d="M1612,128h236a10,10,0,0,1,10,10V657a10,10,0,0,1-10,10H1612a10,10,0,0,1-10-10V138A10,10,0,0,1,1612,128Zm53-15h130a10,10,0,0,1,10,10v23a10,10,0,0,1-10,10H1665a10,10,0,0,1-10-10V123A10,10,0,0,1,1665,113Z" transform="translate(-1556 -82)"/>
  <rect id="Rounded_Rectangle_1_copy_3" data-name="Rounded Rectangle 1 copy 3" class="cls-3" x="46" y="541" width="256" height="44" rx="10" ry="10"/>
  <path id="Shape_1_copy" data-name="Shape 1 copy" class="cls-4" d="M1704.65,295.139v-0.006a7.425,7.425,0,0,0,5.21-2.1,6.925,6.925,0,0,0,2.14-4.99,6.787,6.787,0,0,0-2.14-4.935,7.729,7.729,0,0,0-5.2-2.11h-5.35a0.408,0.408,0,0,0-.41.394V294.35h-2.49a0.395,0.395,0,1,0,0,.789h2.49v3.294h-2.49a0.395,0.395,0,1,0,0,.789h2.49v6.383a0.416,0.416,0,0,0,.83,0v-6.383h8.52a0.395,0.395,0,1,0,0-.789h-8.52v-3.294h4.92Zm-4.92-13.355h4.92a6.282,6.282,0,1,1,0,12.555h-4.92V281.784Zm4.92,13.355v-0.006a7.425,7.425,0,0,0,5.21-2.1,6.925,6.925,0,0,0,2.14-4.99,6.787,6.787,0,0,0-2.14-4.935,7.729,7.729,0,0,0-5.2-2.11h-5.35a0.408,0.408,0,0,0-.41.394V294.35h-2.49a0.395,0.395,0,1,0,0,.789h2.49v3.294h-2.49a0.395,0.395,0,1,0,0,.789h2.49v6.383a0.416,0.416,0,0,0,.83,0v-6.383h8.52a0.395,0.395,0,1,0,0-.789h-8.52v-3.294h4.92Zm-4.92-13.355h4.92a6.282,6.282,0,1,1,0,12.555h-4.92V281.784Z" transform="translate(-1556 -82)"/>
  <path id="Forma_1" data-name="Forma 1" class="cls-5" d="M1648.75,639.2c-0.01-.538-0.02-1.049-0.02-1.538a0.741,0.741,0,0,0-.78-0.695,11.3,11.3,0,0,1-7.91-2.7,0.838,0.838,0,0,0-1.08,0,11.3,11.3,0,0,1-7.91,2.7,0.741,0.741,0,0,0-.78.695c0,0.489-.01,1-0.02,1.538-0.1,5.008-.25,11.869,9,14.764a0.863,0.863,0,0,0,.5,0C1649,651.068,1648.86,644.206,1648.75,639.2Zm-9.25,13.363c-7.93-2.6-7.81-8.3-7.7-13.336,0-.3.01-0.6,0.01-0.881a12.558,12.558,0,0,1,15.38,0c0,0.285.01,0.578,0.01,0.881C1647.31,644.261,1647.43,649.959,1639.5,652.562Zm2.66-10.955-3.73,3.37-1.59-1.436a0.825,0.825,0,0,0-1.09,0,0.654,0.654,0,0,0,0,.987l2.14,1.929a0.787,0.787,0,0,0,.54.2,0.812,0.812,0,0,0,.55-0.2l4.27-3.862a0.655,0.655,0,0,0,0-.988A0.835,0.835,0,0,0,1642.16,641.607Z" transform="translate(-1556 -82)"/>
  <path id="Rectangle_30_copy" data-name="Rectangle 30 copy" class="cls-6" d="M1849,289h3s40,40.652,40,112c0,71.151-40,113-40,113h-3s40-41.7,40-113C1889,329.8,1849,289,1849,289Zm11.82,226.008-17.29,6.367,1.77-18.656Z" transform="translate(-1556 -82)"/>
</svg>
